<svg xmlns="http://www.w3.org/2000/svg" viewBox="0 0 26.666668 26.666668" height="26.667" width="26.667"><defs><clipPath id="a"><path d="M17.861 19.639L10 11.768l-7.862 7.871c-.24.24-.536.361-.888.361-.358 0-.656-.119-.894-.357A1.212 1.212 0 0 1 0 18.75c0-.352.121-.648.361-.889L8.232 10 .361 2.138A1.209 1.209 0 0 1 0 1.25 1.216 1.216 0 0 1 1.25 0c.352 0 .648.12.888.361L10 8.232 17.861.361C18.102.12 18.399 0 18.75 0A1.216 1.216 0 0 1 20 1.25c0 .352-.121.647-.361.888L11.768 10l7.871 7.861c.24.241.361.537.361.889 0 .358-.119.656-.356.893a1.214 1.214 0 0 1-.894.357c-.351 0-.648-.121-.889-.361"/></clipPath></defs><g clip-path="url(#a)" transform="matrix(1.33333 0 0 -1.33333 0 26.667)"><path d="M-5 25h30V-5H-5z"/></g></svg>