<svg xmlns="http://www.w3.org/2000/svg" viewBox="0 0 504.50668 504.49332" height="504.493" width="504.507"><g fill-rule="evenodd"><path d="M504.5 252.244c0 139.312-112.94 252.25-252.25 252.25C112.935 504.493 0 391.555 0 252.243 0 112.928 112.934-.006 252.25-.006c139.31 0 252.25 112.934 252.25 252.25" fill="#314e9c"/><path d="M212.721 328.375c0-23.608-.09-47.215.086-70.819.032-3.979-1.094-5.224-5.074-5.061-7.356.298-14.732-.031-22.097.138-2.983.076-4.081-.75-4.048-3.909.148-14.728.133-29.465.015-44.197-.027-2.834.826-3.766 3.692-3.702 7.53.174 15.077-.21 22.594.162 4.358.213 5.259-1.335 5.168-5.378a742.941 742.941 0 0 1-.017-33.646c.3-13.692 3.975-26.476 12.13-37.61 10.32-14.098 24.994-20.544 41.922-21.298 17.385-.772 34.815-.344 52.221-.531 2.427-.028 3.151.839 3.14 3.199-.077 14.897-.093 29.8.011 44.697.024 2.65-.841 3.461-3.443 3.42-8.372-.13-16.745-.067-25.112-.044-11.142.035-17.812 5.767-18.51 16.796-.56 8.843-.151 17.739-.356 26.607-.076 3.16 1.801 2.942 3.892 2.94 12.721-.019 25.448.126 38.169-.091 3.735-.065 4.967.795 4.54 4.725-1.601 14.803-2.977 29.634-4.245 44.472-.29 3.348-1.818 3.987-4.826 3.936-10.036-.154-20.082-.106-30.128-.042-7.213.042-6.513-1.056-6.513 6.3-.033 46.206-.096 92.414.103 138.62.02 4.88-1.227 6.09-6.055 6.005-17.24-.318-34.49-.333-51.73.008-4.858.096-5.658-1.552-5.62-5.885.185-23.27.091-46.54.091-69.812" fill="#fff"/></g></svg>