<svg xmlns="http://www.w3.org/2000/svg" width="40" height="40" viewBox="0 0 384.25 384.25" shape-rendering="geometricPrecision" text-rendering="geometricPrecision" image-rendering="optimizeQuality" fill-rule="evenodd" clip-rule="evenodd"><defs><style>.fil0{fill:#fefefe}.fil1{fill:#858582;fill-rule:nonzero}</style></defs><g id="Layer_x0020_1"><path class="fil0" d="M192.28 14.54c97.99 0 177.42 79.69 177.42 178s-79.43 178.01-177.42 178.01c-97.99 0-177.42-79.7-177.42-178.01 0-98.31 79.43-178 177.42-178z"/><g id="_2616633235776"><path class="fil1" d="M192.12 0C86.19 0 0 86.18 0 192.12s86.19 192.13 192.12 192.13c105.94 0 192.13-86.19 192.13-192.13S298.06 0 192.12 0zm0 369.47c-97.78 0-177.34-79.56-177.34-177.35 0-97.78 79.56-177.34 177.34-177.34 97.79 0 177.35 79.56 177.35 177.34 0 97.79-79.56 177.35-177.35 177.35z"/><path class="fil1" d="M288.18 184.73H96.06c-4.08 0-7.39 3.31-7.39 7.39 0 4.09 3.31 7.39 7.39 7.39h192.12c4.08 0 7.4-3.3 7.4-7.39 0-4.08-3.32-7.39-7.4-7.39z"/></g></g></svg>