<svg xmlns="http://www.w3.org/2000/svg" viewBox="0 0 28.573334 20" height="20" width="28.573"><defs><clipPath id="a"><path d="M0 0v150h214V0z"/></clipPath><clipPath id="b"><path d="M10.715 85.715h192.859c2.949 0 5.489-1.047 7.578-3.14 2.09-2.098 3.125-4.622 3.125-7.575 0-2.96-1.035-5.488-3.125-7.578-2.089-2.09-4.629-3.137-7.578-3.137H10.714c-2.956 0-5.484 1.047-7.573 3.137C1.043 69.512 0 72.039 0 75c0 2.953 1.043 5.477 3.14 7.574 2.09 2.094 4.618 3.14 7.575 3.14zm0-64.29h192.859c2.949 0 5.489-1.042 7.578-3.136 2.09-2.098 3.125-4.617 3.125-7.574 0-2.961-1.035-5.48-3.125-7.578C209.063 1.047 206.523 0 203.574 0H10.714C7.759 0 5.23 1.047 3.142 3.137 1.043 5.234 0 7.754 0 10.715c0 2.957 1.043 5.476 3.14 7.574 2.09 2.094 4.618 3.137 7.575 3.137zm0 128.575h192.859c2.949 0 5.489-1.051 7.578-3.141 2.09-2.093 3.125-4.617 3.125-7.578 0-2.953-1.035-5.484-3.125-7.57-2.089-2.098-4.629-3.141-7.578-3.141H10.714c-2.956 0-5.484 1.043-7.573 3.141C1.043 133.797 0 136.328 0 139.281c0 2.961 1.043 5.485 3.14 7.578 2.09 2.09 4.618 3.141 7.575 3.141z" clip-rule="evenodd"/></clipPath><clipPath id="c"><path d="M0 0h220v150H0z"/></clipPath></defs><g clip-path="url(#a)" transform="matrix(.13333 0 0 -.13333 0 20)"><g clip-path="url(#b)"><g clip-path="url(#c)"><path d="M0 0h264.277v200H0z" fill="#131212"/></g></g></g></svg>