<svg xmlns="http://www.w3.org/2000/svg" width="40" height="40" viewBox="0 0 11.55 11.55" shape-rendering="geometricPrecision" text-rendering="geometricPrecision" image-rendering="optimizeQuality" fill-rule="evenodd" clip-rule="evenodd"><defs><style>.fil1{fill:#fefefe}.fil0,.fil2{fill:#858283;fill-rule:nonzero}.fil2{fill:#858582}</style></defs><g id="Layer_x0020_1"><g id="_2616638276160"><path class="fil0" d="M5.77 0C2.59 0 0 2.59 0 5.77c0 3.19 2.59 5.78 5.77 5.78 3.19 0 5.78-2.59 5.78-5.78C11.55 2.59 8.96 0 5.77 0zm0 11.1C2.84 11.1.44 8.71.44 5.77.44 2.84 2.84.44 5.77.44c2.94 0 5.33 2.4 5.33 5.33 0 2.94-2.39 5.33-5.33 5.33z"/><path class="fil1" d="M11.11 5.78c0-2.95-2.39-5.35-5.33-5.35C2.83.43.44 2.83.44 5.78c0 2.96 2.39 5.35 5.34 5.35 2.94 0 5.33-2.39 5.33-5.35z"/><path class="fil2" d="M8.55 5.55H6V3.11c0-.12-.1-.22-.23-.22-.12 0-.22.1-.22.22v2.44H3c-.12 0-.22.1-.22.22 0 .13.1.23.22.23h2.55v2.66c0 .12.1.22.22.22.13 0 .23-.1.23-.22V6h2.55c.12 0 .22-.1.22-.23 0-.12-.1-.22-.22-.22z"/></g></g></svg>