<svg xmlns="http://www.w3.org/2000/svg" viewBox="0 0 22.639334 22.7012" height="22.701" width="22.639"><defs><clipPath id="a"><path d="M0 17.026h16.979V0H0z"/></clipPath></defs><g clip-path="url(#a)" transform="matrix(1.33333 0 0 -1.33333 0 22.701)"><path d="M8.531 1.151c-4.05 0-7.364 3.311-7.364 7.36 0 4.05 3.313 7.36 7.364 7.36s7.365-3.31 7.365-7.36c0-4.049-3.314-7.36-7.365-7.36M8.49 17.026C3.823 17.026 0 13.193 0 8.512 0 3.832 3.823 0 8.49 0s8.49 3.832 8.49 8.512c0 4.681-3.823 8.514-8.49 8.514m-.014-3.109c-3.003 0-5.367-2.369-5.367-5.375 0-3.009 2.364-5.375 5.367-5.375 3.004 0 5.367 2.366 5.367 5.375 0 3.006-2.363 5.375-5.367 5.375" fill="#ed1c24"/></g></svg>