<svg xmlns="http://www.w3.org/2000/svg" viewBox="0 0 302 302.29199" height="302.292" width="302"><defs><linearGradient id="a" gradientTransform="scale(227.55762 -227.55762) rotate(90 .748 -.25)" gradientUnits="userSpaceOnUse" x2="1"><stop offset="0" stop-color="#59c8ec"/><stop offset="1" stop-color="#4bade2"/></linearGradient><clipPath id="b"><path d="M0 226.719h226.5V0H0z"/></clipPath></defs><path d="M113.359 226.719C50.753 226.719 0 175.966 0 113.359S50.753 0 113.359 0C173.579 0 222.83 46.951 226.5 106.245v14.227c-3.67 59.295-52.921 106.247-113.141 106.247z" fill="url(#a)" transform="matrix(1.33333 0 0 -1.33333 0 302.292)"/><g clip-path="url(#b)" transform="matrix(1.33333 0 0 -1.33333 0 302.292)" fill-rule="evenodd"><path d="M168.519 161.51L148.272 59.425s-2.832-7.079-10.62-3.68L90.93 91.566l-16.99 8.211-28.6 9.628s-4.39 1.558-4.814 4.955c-.425 3.398 4.955 5.24 4.955 5.24l113.693 44.598s9.345 4.106 9.345-2.69" fill="#fff"/><path d="M87.338 60.573s-1.364.128-3.063 5.509c-1.699 5.38-10.336 33.697-10.336 33.697l68.67 43.608s3.964 2.407 3.821 0c0 0 .71-.425-1.415-2.407-2.124-1.983-53.944-48.563-53.944-48.563z" fill="#cce5ee"/><path d="M108.845 77.832l-18.481-16.85s-1.445-1.096-3.025-.409l3.539 31.298z" fill="#abcee2"/></g></svg>