<svg xmlns="http://www.w3.org/2000/svg" viewBox="0 0 85.333336 85.333336" height="85.333" width="85.333"><defs><clipPath id="a"><path d="M0 64h64V0H0z"/></clipPath></defs><g clip-path="url(#a)" transform="matrix(1.33333 0 0 -1.33333 0 85.333)"><path d="M32 64c17.68 0 32-14.32 32-32S49.68 0 32 0 0 14.32 0 32s14.32 32 32 32" fill="#55acee"/><path d="M51 43.449a15.957 15.957 0 0 0-4.478-1.193c1.61.938 2.846 2.422 3.428 4.19A15.896 15.896 0 0 0 45 44.609a7.896 7.896 0 0 1-5.691 2.39c-4.306 0-7.796-3.39-7.796-7.572 0-.594.069-1.172.201-1.726-6.479.316-12.223 3.33-16.069 7.913a7.374 7.374 0 0 1-1.055-3.807c0-2.628 1.376-4.946 3.468-6.304a7.937 7.937 0 0 0-3.531.947l-.001-.095c0-3.67 2.688-6.731 6.254-7.426a8.026 8.026 0 0 0-3.521-.13c.992-3.01 3.872-5.2 7.283-5.26a15.938 15.938 0 0 0-9.682-3.242c-.63 0-1.25.036-1.86.106A22.538 22.538 0 0 1 24.951 17c14.34 0 22.181 11.54 22.181 21.549 0 .328-.007.655-.022.979a15.601 15.601 0 0 1 3.89 3.92" fill="#fff"/></g></svg>